<?xml version="1.0"?>
<svg xmlns="http://www.w3.org/2000/svg" xmlns:xlink="http://www.w3.org/1999/xlink" xmlns:svgjs="http://svgjs.com/svgjs" version="1.1" width="512" height="512" x="0" y="0" viewBox="0 0 24 24" style="enable-background:new 0 0 512 512" xml:space="preserve"><g><path xmlns="http://www.w3.org/2000/svg" d="M19.5,0H4.5c-.829,0-1.5,.671-1.5,1.5s.671,1.5,1.5,1.5h7.247c-.143,.042-.278,.12-.391,.234l-5.087,5.191c-.574,.581-.167,1.575,.644,1.575h3.587v12.5c0,.829,.671,1.5,1.5,1.5s1.5-.671,1.5-1.5V10h3.587c.811,0,1.218-.994,.644-1.575L12.644,3.234c-.113-.114-.248-.192-.391-.234h7.247c.828,0,1.5-.671,1.5-1.5s-.672-1.5-1.5-1.5Z" fill="#ffffff" data-original="#000000"/></g></svg>
