<svg width="125" height="40" viewBox="0 0 125 40" fill="none" xmlns="http://www.w3.org/2000/svg">
<path d="M59.5665 8.90122C59.5665 8.3311 59.7529 7.85966 60.1366 7.48689C60.5204 7.11412 61.0466 6.92773 61.7045 6.92773C62.3513 6.92773 62.8776 7.11412 63.2613 7.48689C63.6451 7.85966 63.8424 8.3311 63.8424 8.90122C63.8424 9.4823 63.6451 9.95375 63.2504 10.3265C62.8557 10.6993 62.3404 10.8857 61.6935 10.8857C61.0466 10.8857 60.5313 10.6993 60.1366 10.3265C59.7639 9.96471 59.5665 9.4823 59.5665 8.90122ZM63.6231 26.8928H59.7968V12.596H63.6231V26.8928Z" fill="white"/>
<path d="M65.8043 19.6452C65.8043 17.4524 66.3306 15.6872 67.3721 14.3496C68.4137 13.0121 69.8171 12.3433 71.5932 12.3433C73.161 12.3433 74.378 12.8805 75.2551 13.9549L75.4086 12.6064H78.8732V26.4208C78.8732 27.6707 78.5881 28.7561 78.018 29.688C77.4479 30.609 76.6475 31.3216 75.6169 31.804C74.5863 32.2864 73.3803 32.5276 71.9989 32.5276C70.9464 32.5276 69.9267 32.3193 68.94 31.9027C67.9423 31.4861 67.1967 30.9489 66.6814 30.2801L68.3699 27.9557C69.3237 29.0192 70.4749 29.5565 71.8344 29.5565C72.8431 29.5565 73.6325 29.2824 74.2026 28.7451C74.7618 28.2079 75.0468 27.4404 75.0468 26.4427V25.6753C74.1697 26.673 73.0076 27.1663 71.5713 27.1663C69.85 27.1663 68.4685 26.4975 67.405 25.149C66.3415 23.8114 65.8153 22.0243 65.8153 19.8096V19.6452H65.8043ZM69.6197 19.9193C69.6197 21.213 69.8829 22.2326 70.3982 22.9672C70.9135 23.7018 71.6261 24.0745 72.5361 24.0745C73.6983 24.0745 74.5315 23.636 75.0359 22.7699V16.7507C74.5206 15.8736 73.6983 15.446 72.569 15.446C71.648 15.446 70.9354 15.8188 70.4091 16.5753C69.8829 17.3099 69.6197 18.4391 69.6197 19.9193Z" fill="white"/>
<path d="M84.9044 12.5956L85.025 14.2512C86.0446 12.9794 87.4151 12.3325 89.1364 12.3325C90.6494 12.3325 91.7787 12.782 92.5132 13.6701C93.2478 14.5582 93.6315 15.8848 93.6535 17.6609V26.8925H89.8381V17.7486C89.8381 16.9373 89.6627 16.3562 89.3118 15.9835C88.961 15.6217 88.3689 15.4353 87.5576 15.4353C86.4832 15.4353 85.6828 15.8958 85.1456 16.8058V26.8815H81.3302V12.5956H84.9044Z" fill="white"/>
<path d="M96.1084 8.90073C96.1084 8.33061 96.2948 7.85917 96.6785 7.4864C97.0622 7.11363 97.5885 6.92725 98.2463 6.92725C98.8932 6.92725 99.4195 7.11363 99.8032 7.4864C100.187 7.85917 100.384 8.33061 100.384 8.90073C100.384 9.48182 100.187 9.95326 99.7922 10.326C99.3975 10.6988 98.8822 10.8852 98.2354 10.8852C97.5885 10.8852 97.0732 10.6988 96.6785 10.326C96.3057 9.96422 96.1084 9.48182 96.1084 8.90073ZM100.165 26.8924H96.3386V12.5955H100.165V26.8924Z" fill="white"/>
<path d="M107.479 9.08643V12.5948H109.924V15.3906H107.479V22.5281C107.479 23.0543 107.577 23.4381 107.786 23.6683C107.983 23.8986 108.378 24.0082 108.948 24.0082C109.375 24.0082 109.748 23.9753 110.066 23.9205V26.8149C109.32 27.0452 108.542 27.1548 107.753 27.1548C105.077 27.1548 103.707 25.8063 103.663 23.0982V15.4016H101.58V12.6058H103.663V9.09739H107.479V9.08643Z" fill="white"/>
<path d="M118.212 27.1553C116.118 27.1553 114.408 26.5085 113.092 25.2257C111.776 23.9429 111.118 22.2326 111.118 20.0837V19.7109C111.118 18.2746 111.393 16.9919 111.952 15.8626C112.511 14.7333 113.289 13.8562 114.309 13.2423C115.329 12.6283 116.491 12.3213 117.784 12.3213C119.736 12.3213 121.282 12.9353 122.4 14.1742C123.519 15.4021 124.089 17.1563 124.089 19.4149V20.9717H114.989C115.109 21.9037 115.482 22.6492 116.107 23.2193C116.732 23.7785 117.51 24.0635 118.464 24.0635C119.933 24.0635 121.085 23.5263 121.907 22.4628L123.782 24.5679C123.212 25.3792 122.433 26.0151 121.457 26.4646C120.492 26.9251 119.407 27.1553 118.212 27.1553ZM117.784 15.4131C117.028 15.4131 116.414 15.6653 115.942 16.1806C115.471 16.6959 115.175 17.4304 115.032 18.3843H120.339V18.0773C120.317 17.2331 120.098 16.5753 119.648 16.1038C119.21 15.6433 118.585 15.4131 117.784 15.4131Z" fill="white"/>
<path opacity="0.5" d="M39.8218 0.268939L30.0762 36.6581C30.0267 36.8232 29.8285 36.8728 29.7128 36.7572L23.1882 30.2326L28.0775 11.9967C28.1271 11.8315 27.9784 11.6829 27.8133 11.7324L9.57741 16.6217L3.08584 10.1302C2.97022 10.0145 3.01977 9.81633 3.18495 9.76678L39.5575 0.00465167C39.7227 -0.0283843 39.8714 0.120278 39.8218 0.268939Z" fill="#00B37E"/>
<path opacity="0.5" d="M23.1882 30.2329L20.6775 39.6481C20.6279 39.8133 20.4297 39.8629 20.3141 39.7472L0.0630156 19.5127C-0.0526102 19.3971 -0.00305652 19.1989 0.162123 19.1493L9.57737 16.6221L23.1882 30.2329Z" fill="#00B37E"/>
<path d="M28.0776 11.9966L23.1883 30.2325L9.57751 16.6217L27.8133 11.7323C27.9785 11.6828 28.1272 11.8314 28.0776 11.9966Z" fill="#00B37E"/>
</svg>
