<svg width="54" height="64" viewBox="0 0 54 64" fill="none" xmlns="http://www.w3.org/2000/svg">
<path d="M42.0742 0.000732422C35.4983 0.000732422 30.1484 5.34644 30.1484 11.9172V20.0837H23.8516V11.9172C23.8516 5.34644 18.5017 0.000732422 11.9258 0.000732422C5.34986 0.000732422 0 5.34644 0 11.9172V37.0212C0 40.4602 2.53175 43.3181 5.83071 43.8337C5.31712 44.7981 5.02441 45.8972 5.02441 47.0632C5.02441 55.0701 10.1466 62.8391 10.3645 63.1658C10.7124 63.6873 11.2983 64.0007 11.9258 64.0007C12.5532 64.0007 13.1391 63.6873 13.4871 63.1658C13.705 62.8391 18.8271 55.0701 18.8271 47.0632C18.8271 45.8972 18.5349 44.7981 18.0213 43.8337C21.3203 43.3181 23.852 40.4602 23.852 37.0212V33.8757H30.1484V37.0212C30.1484 40.4602 32.6802 43.3181 35.9791 43.8337C35.4656 44.7981 35.1733 45.8972 35.1733 47.0632C35.1733 55.0701 40.295 62.8391 40.5129 63.1658C40.8609 63.6873 41.4468 64.0007 42.0742 64.0007C42.7017 64.0007 43.2876 63.6873 43.6355 63.1658C43.8534 62.8391 48.9756 55.0701 48.9756 47.0632C48.9756 45.8972 48.6834 44.7981 48.1698 43.8337C51.4682 43.3181 54 40.4602 54 37.0212V11.9172C54 5.34644 48.6501 0.000732422 42.0742 0.000732422ZM33.9014 11.9172C33.9014 7.41431 37.5678 3.75073 42.0742 3.75073C46.5807 3.75073 50.2471 7.41431 50.2471 11.9172V30.1257H33.9014V11.9172ZM11.9258 3.75073C16.4322 3.75073 20.0986 7.41431 20.0986 11.9172V30.1257H3.75292V11.9172C3.75292 7.41431 7.41934 3.75073 11.9258 3.75073ZM11.9238 58.3298C10.5531 55.6292 8.77733 51.3113 8.77733 47.0632C8.77733 45.3284 10.1896 43.9172 11.9258 43.9172C13.662 43.9172 15.0742 45.3284 15.0742 47.0632C15.0742 51.2971 13.2955 55.6233 11.9238 58.3298ZM16.9507 40.1672H6.90087C5.16515 40.1672 3.75292 38.7561 3.75292 37.0212V33.8757H20.0986V37.0212C20.0986 38.7561 18.6869 40.1672 16.9507 40.1672ZM23.8516 23.8337H30.1484V30.1257H23.8516V23.8337ZM42.0723 58.3298C40.7016 55.6292 38.9258 51.3113 38.9258 47.0632C38.9258 45.3284 40.338 43.9172 42.0742 43.9172C43.8104 43.9172 45.2227 45.3284 45.2227 47.0632C45.2227 51.2971 43.4439 55.6233 42.0723 58.3298ZM47.0991 40.1672H37.0493C35.3136 40.1672 33.9014 38.7561 33.9014 37.0212V33.8757H50.2471V37.0212C50.2471 38.7561 48.8353 40.1672 47.0991 40.1672Z" fill="white"/>
</svg>

